<svg width="300" height="300" viewBox="0 0 300 300"
	xmlns="http://www.w3.org/2000/svg">
	<mask id="satori_om-id">
		<rect x="0" y="0" width="300" height="300" fill="#fff"/>
	</mask>
	<rect x="0" y="0" width="300" height="300" fill="#0a0a0a"/>
	<mask id="satori_om-id-0">
		<rect x="64" y="54" width="173" height="192" fill="#fff"/>
	</mask>
	<g  >
		<path fill="#C9A84C" d="M83.2 91.6L64 91.6L64 49.4L83.2 49.4L83.2 91.6ZM102.4 91.6L83.2 91.6L83.2 49.4L102.4 49.4L102.4 91.6ZM121.6 91.6L102.4 91.6L102.4 49.4L121.6 49.4L121.6 91.6ZM140.8 91.6L121.6 91.6L121.6 49.4L140.8 49.4L140.8 91.6ZM160 91.6L140.8 91.6L140.8 49.4L160 49.4L160 91.6ZM179.2 91.6L160 91.6L160 49.4L179.2 49.4L179.2 91.6ZM198.4 91.6L179.2 91.6L179.2 49.4L198.4 49.4L198.4 91.6ZM212.8 94.8L209.6 94.8L209.6 68.6L197.8 68.6L197.8 65.4L212.8 65.4L212.8 94.8ZM206.4 94.8L203.2 94.8L203.2 75.0L197.8 75.0L197.8 71.8L206.4 71.8L206.4 94.8Z M83.8 107.0L68.8 107.0L68.8 78.2L72 78.2L72 103.8L83.8 103.8L83.8 107.0ZM83.8 100.6L75.2 100.6L75.2 78.2L78.4 78.2L78.4 97.4L83.8 97.4L83.8 100.6ZM103.0 100.6L82.6 100.6L82.6 97.4L103.0 97.4L103.0 100.6ZM103.0 107.0L82.6 107.0L82.6 103.8L103.0 103.8L103.0 107.0ZM122.2 100.6L101.8 100.6L101.8 97.4L122.2 97.4L122.2 100.6ZM122.2 107.0L101.8 107.0L101.8 103.8L122.2 103.8L122.2 107.0ZM140.8 123.6L121.6 123.6L121.6 81.4L140.8 81.4L140.8 123.6ZM160 123.6L140.8 123.6L140.8 81.4L160 81.4L160 123.6ZM179.2 123.6L160 123.6L160 81.4L179.2 81.4L179.2 123.6ZM187.2 126.8L184 126.8L184 97.4L199.0 97.4L199.0 100.6L187.2 100.6L187.2 126.8ZM193.6 126.8L190.4 126.8L190.4 103.8L199.0 103.8L199.0 107.0L193.6 107.0L193.6 126.8ZM212.8 107.0L197.8 107.0L197.8 103.8L209.6 103.8L209.6 78.2L212.8 78.2L212.8 107.0ZM206.4 100.6L197.8 100.6L197.8 97.4L203.2 97.4L203.2 78.2L206.4 78.2L206.4 100.6Z M121.6 155.6L102.4 155.6L102.4 113.4L121.6 113.4L121.6 155.6ZM140.8 155.6L121.6 155.6L121.6 113.4L140.8 113.4L140.8 155.6ZM160 155.6L140.8 155.6L140.8 113.4L160 113.4L160 155.6ZM168 158.8L164.8 158.8L164.8 129.4L179.8 129.4L179.8 132.6L168 132.6L168 158.8ZM174.4 158.8L171.2 158.8L171.2 135.8L179.8 135.8L179.8 139.0L174.4 139.0L174.4 158.8ZM193.6 139.0L178.6 139.0L178.6 135.8L190.4 135.8L190.4 110.2L193.6 110.2L193.6 139.0ZM187.2 132.6L178.6 132.6L178.6 129.4L184 129.4L184 110.2L187.2 110.2L187.2 132.6Z   M102.2 187.6L83 187.6L83 145.4L102.2 145.4L102.2 187.6ZM121.4 187.6L102.2 187.6L102.2 145.4L121.4 145.4L121.4 187.6ZM140.6 187.6L121.4 187.6L121.4 145.4L140.6 145.4L140.6 187.6ZM148.6 190.8L145.4 190.8L145.4 161.4L160.4 161.4L160.4 164.6L148.6 164.6L148.6 190.8ZM155 190.8L151.8 190.8L151.8 167.8L160.4 167.8L160.4 171.0L155 171.0L155 190.8ZM174.2 171.0L159.2 171.0L159.2 167.8L171.0 167.8L171.0 142.2L174.2 142.2L174.2 171.0ZM167.8 164.6L159.2 164.6L159.2 161.4L164.6 161.4L164.6 142.2L167.8 142.2L167.8 164.6Z M83.2 219.6L64 219.6L64 177.4L83.2 177.4L83.2 219.6ZM102.4 219.6L83.2 219.6L83.2 177.4L102.4 177.4L102.4 219.6ZM121.6 219.6L102.4 219.6L102.4 177.4L121.6 177.4L121.6 219.6ZM140.8 219.6L121.6 219.6L121.6 177.4L140.8 177.4L140.8 219.6ZM160 219.6L140.8 219.6L140.8 177.4L160 177.4L160 219.6ZM179.2 219.6L160 219.6L160 177.4L179.2 177.4L179.2 219.6ZM198.4 219.6L179.2 219.6L179.2 177.4L198.4 177.4L198.4 219.6ZM212.8 222.8L209.6 222.8L209.6 196.6L197.8 196.6L197.8 193.4L212.8 193.4L212.8 222.8ZM206.4 222.8L203.2 222.8L203.2 203.0L197.8 203.0L197.8 199.8L206.4 199.8L206.4 222.8Z M83.8 235.0L68.8 235.0L68.8 206.2L72 206.2L72 231.8L83.8 231.8L83.8 235.0ZM83.8 228.6L75.2 228.6L75.2 206.2L78.4 206.2L78.4 225.4L83.8 225.4L83.8 228.6ZM103.0 228.6L82.6 228.6L82.6 225.4L103.0 225.4L103.0 228.6ZM103.0 235.0L82.6 235.0L82.6 231.8L103.0 231.8L103.0 235.0ZM122.2 228.6L101.8 228.6L101.8 225.4L122.2 225.4L122.2 228.6ZM122.2 235.0L101.8 235.0L101.8 231.8L122.2 231.8L122.2 235.0ZM141.4 228.6L121.0 228.6L121.0 225.4L141.4 225.4L141.4 228.6ZM141.4 235.0L121.0 235.0L121.0 231.8L141.4 231.8L141.4 235.0ZM160.6 228.6L140.2 228.6L140.2 225.4L160.6 225.4L160.6 228.6ZM160.6 235.0L140.2 235.0L140.2 231.8L160.6 231.8L160.6 235.0ZM179.8 228.6L159.4 228.6L159.4 225.4L179.8 225.4L179.8 228.6ZM179.8 235.0L159.4 235.0L159.4 231.8L179.8 231.8L179.8 235.0ZM199.0 228.6L178.6 228.6L178.6 225.4L199.0 225.4L199.0 228.6ZM199.0 235.0L178.6 235.0L178.6 231.8L199.0 231.8L199.0 235.0ZM212.8 235.0L197.8 235.0L197.8 231.8L209.6 231.8L209.6 206.2L212.8 206.2L212.8 235.0ZM206.4 228.6L197.8 228.6L197.8 225.4L203.2 225.4L203.2 206.2L206.4 206.2L206.4 228.6Z "/>
	</g>
</svg>